SplineFontDB: 3.0
FontName: ElianWideCapitalsLight
FullName: Elian Wide Capitals Light EWCL_1
FamilyName: Elian Wide Capitals
Weight: Light
Copyright: Copyright (c) 2017 and following, the Elian Wide Capitals Light contributors.\n\nThis font is available for use, bundling, modification and redistribution under the SIL Open Font License, version 1.1 and following.\n\nhttp://scripts.sil.org/cms/scripts/page.php?site_id=nrsi&id=OFL\nhttps://en.wikipedia.org/wiki/SIL_Open_Font_License
UComments: "2017-5-20: Created with FontForge (http://fontforge.org)"
Version: 001.000
ItalicAngle: 0
UnderlinePosition: -60
UnderlineWidth: 30
Ascent: 400
Descent: 200
InvalidEm: 0
LayerCount: 2
Layer: 0 0 "Back" 1
Layer: 1 0 "Fore" 0
XUID: [1021 634 1715875129 234171]
FSType: 0
OS2Version: 0
OS2_WeightWidthSlopeOnly: 0
OS2_UseTypoMetrics: 1
CreationTime: 1495304261
ModificationTime: 1496876938
PfmFamily: 17
TTFWeight: 400
TTFWidth: 5
LineGap: 49
VLineGap: 0
OS2TypoAscent: 0
OS2TypoAOffset: 1
OS2TypoDescent: 0
OS2TypoDOffset: 1
OS2TypoLinegap: 49
OS2WinAscent: 0
OS2WinAOffset: 1
OS2WinDescent: 0
OS2WinDOffset: 1
HheadAscent: 0
HheadAOffset: 1
HheadDescent: 0
HheadDOffset: 1
OS2Vendor: 'PfEd'
Lookup: 258 4 0 "qu" { "qu-1" [90,9,0] "qu-2" [90,0,2] "qu-3" [90,9,0] "/q" [90,9,0] "qu-4" [90,0,2] "slash-startlow" [90,9,2] } []
MarkAttachClasses: 1
DEI: 91125
KernClass2: 2 2 "slash-startlow"
 5 slash
 9 c k l t u
 0 {} 0 {} 0 {} -50 {}
KernClass2: 2 2 "qu-4"
 5 slash
 41 a b d e f g h i j m n o p q r s v w x y z
 0 {} 0 {} 0 {} -25 {}
KernClass2: 1 1 "/q"
 0 {}
KernClass2: 1 1 "qu-3"
 0 {}
KernClass2: 3 2 "qu-2"
 9 g p q y z
 0 
 7 c k t u
 0 {} 0 {} 0 {} -80 {} 0 {} 0 {}
KernClass2: 1 1 "qu-1"
 0 {}

StartChar: A
Encoding: 0 65 0
Width: 440
VWidth: 0
Flags: W
HStem: 0 21G<400 420> 376 24<20 400>
VStem: 400 20<0 376>
LayerCount: 2
Fore
SplineSet
20 400 m 1
 420 400 l 1
 420 0 l 1
 400 0 l 1
 400 376 l 1
 20 376 l 5
 20 400 l 1
EndSplineSet
Validated: 1
EndChar

StartChar: E
Encoding: 1 69 1
Width: 440
VWidth: 0
Flags: W
HStem: 0 20<40 400> 376 24<40 400>
VStem: 20 20<20 376> 400 20<20 376>
LayerCount: 2
Fore
SplineSet
40 376 m 5
 40 20 l 5
 400 20 l 5
 400 376 l 5
 40 376 l 5
20 400 m 5
 420 400 l 5
 420 0 l 5
 20 0 l 5
 20 400 l 5
EndSplineSet
Validated: 1
EndChar

StartChar: B
Encoding: 2 66 2
Width: 440
VWidth: 0
Flags: W
HStem: 0 20<20 400> 376 24<20 400>
VStem: 400 20<20 376>
LayerCount: 2
Fore
SplineSet
20 400 m 5
 420 400 l 1
 420 0 l 1
 20 0 l 1
 20 20 l 1
 400 20 l 1
 400 376 l 1
 20 376 l 1
 20 400 l 5
EndSplineSet
Validated: 1
EndChar

StartChar: C
Encoding: 3 67 3
Width: 440
VWidth: 0
Flags: W
HStem: 0 20<20 400> 380 20G<400 420> 380 20G<400 420>
VStem: 400 20<20 400>
LayerCount: 2
Fore
SplineSet
400 20 m 1xd0
 400 400 l 1
 420 400 l 1
 420 0 l 1
 20 0 l 1
 20 20 l 5
 400 20 l 1xd0
EndSplineSet
Validated: 1
EndChar

StartChar: D
Encoding: 4 68 4
Width: 440
VWidth: 0
Flags: W
HStem: 0 21G<20 40 400 420> 376 24<40 400>
VStem: 20 20<0 376> 400 20<0 376>
LayerCount: 2
Fore
SplineSet
20 400 m 5
 420 400 l 5
 420 0 l 5
 400 0 l 5
 400 376 l 5
 40 376 l 5
 40 0 l 5
 20 0 l 5
 20 400 l 5
EndSplineSet
Validated: 1
EndChar

StartChar: F
Encoding: 5 70 5
Width: 440
VWidth: 0
Flags: W
HStem: 0 20<40 400> 380 20G<20 40 400 420> 380 20G<20 40 400 420>
VStem: 20 20<20 400> 400 20<20 400>
LayerCount: 2
Fore
SplineSet
420 0 m 1xd8
 20 0 l 1
 20 400 l 1
 40 400 l 1
 40 20 l 1
 400 20 l 1
 400 400 l 5
 420 400 l 1
 420 0 l 1xd8
EndSplineSet
Validated: 1
EndChar

StartChar: G
Encoding: 6 71 6
Width: 440
VWidth: 0
Flags: W
HStem: 0 21G<20 40> 376 24<40 420>
VStem: 20 20<0 376>
LayerCount: 2
Fore
SplineSet
420 400 m 5
 420 376 l 1
 40 376 l 1
 40 0 l 1
 20 0 l 1
 20 400 l 1
 420 400 l 5
EndSplineSet
Validated: 1
EndChar

StartChar: H
Encoding: 7 72 7
Width: 440
VWidth: 0
Flags: W
HStem: 0 20<40 420> 376 24<40 420>
VStem: 20 20<20 376>
LayerCount: 2
Fore
SplineSet
420 400 m 29
 420 376 l 1
 40 376 l 25
 40 20 l 25
 420 20 l 25
 420 0 l 25
 20 0 l 25
 20 400 l 1
 420 400 l 29
EndSplineSet
Validated: 1
EndChar

StartChar: I
Encoding: 8 73 8
Width: 440
VWidth: 0
Flags: W
HStem: 0 20<40 420> 380 20G<20 40> 380 20G<20 40>
VStem: 20 20<20 400>
LayerCount: 2
Fore
SplineSet
20 400 m 1xd0
 40 400 l 1
 40 20 l 1
 420 20 l 5
 420 0 l 1
 20 0 l 1
 20 400 l 1xd0
EndSplineSet
Validated: 1
EndChar

StartChar: J
Encoding: 9 74 9
Width: 640
VWidth: 0
Flags: W
HStem: 0 21G<600 620> 376 24<20 600>
VStem: 600 20<0 376>
LayerCount: 2
Fore
SplineSet
20 400 m 1
 620 400 l 1
 620 0 l 1
 600 0 l 1
 600 376 l 1
 20 376 l 1
 20 400 l 1
EndSplineSet
Validated: 1
EndChar

StartChar: K
Encoding: 10 75 10
Width: 640
VWidth: 0
Flags: W
HStem: 0 20<20 600> 376 24<20 600>
VStem: 600 20<20 375>
LayerCount: 2
Fore
SplineSet
20 400 m 1
 620 400 l 1
 620 0 l 1
 20 0 l 1
 20 20 l 1
 600 20 l 5
 600 375 l 1
 20 376 l 1
 20 400 l 1
EndSplineSet
Validated: 1
EndChar

StartChar: S
Encoding: 11 83 11
Width: 640
VWidth: 0
Flags: W
HStem: 0 21G<600 620> 170 40<301 339> 376 24<20 600>
VStem: 301 38<170 210> 600 20<0 376>
LayerCount: 2
Fore
SplineSet
301 170 m 5
 301 210 l 5
 339 210 l 5
 339 170 l 5
 301 170 l 5
20 400 m 1
 620 400 l 1
 620 0 l 1
 600 0 l 1
 600 376 l 1
 20 376 l 1
 20 400 l 1
EndSplineSet
Validated: 1
EndChar

StartChar: T
Encoding: 12 84 12
Width: 640
VWidth: 0
Flags: W
HStem: 0 20<20 600> 170 40<301 339> 376 24<20 600>
VStem: 301 38<170 210> 600 20<20 375>
LayerCount: 2
Fore
SplineSet
301 170 m 5
 301 210 l 5
 339 210 l 5
 339 170 l 5
 301 170 l 5
20 400 m 1
 620 400 l 1
 620 0 l 1
 20 0 l 1
 20 20 l 1
 600 20 l 1
 600 375 l 1
 20 376 l 1
 20 400 l 1
EndSplineSet
Validated: 1
EndChar

StartChar: L
Encoding: 13 76 13
Width: 640
VWidth: 0
Flags: W
HStem: 0 20<20 600> 380 20G<600 620> 380 20G<600 620>
VStem: 600 20<20 400>
LayerCount: 2
Fore
SplineSet
600 20 m 5xd0
 600 400 l 5
 620 400 l 5
 620 0 l 5
 20 0 l 1
 20 20 l 1
 600 20 l 5xd0
EndSplineSet
Validated: 1
EndChar

StartChar: U
Encoding: 14 85 14
Width: 640
VWidth: 0
Flags: W
HStem: 0 20<20 600> 170 40<301 339> 380 20G<600 620> 380 20G<600 620>
VStem: 301 38<170 210> 600 20<20 400>
LayerCount: 2
Fore
SplineSet
301 170 m 1xcc
 301 210 l 1
 339 210 l 1
 339 170 l 1
 301 170 l 1xcc
600 20 m 5
 600 400 l 5
 620 400 l 5xec
 620 0 l 5
 20 0 l 5
 20 20 l 5
 600 20 l 5
EndSplineSet
Validated: 1
EndChar

StartChar: M
Encoding: 15 77 15
Width: 640
VWidth: 0
Flags: W
HStem: 0 21G<20 40 600 620> 376 24<40 600>
VStem: 20 20<0 376> 600 20<0 376>
LayerCount: 2
Fore
SplineSet
20 400 m 1
 620 400 l 5
 620 0 l 5
 600 0 l 5
 600 376 l 5
 40 376 l 1
 40 0 l 1
 20 0 l 1
 20 400 l 1
EndSplineSet
Validated: 1
EndChar

StartChar: V
Encoding: 16 86 16
Width: 640
VWidth: 0
Flags: W
HStem: 0 21G<20 40 600 620> 170 40<301 339> 376 24<40 600>
VStem: 20 20<0 376> 301 38<170 210> 600 20<0 376>
CounterMasks: 1 1c
LayerCount: 2
Fore
SplineSet
301 170 m 5
 301 210 l 5
 339 210 l 5
 339 170 l 5
 301 170 l 5
20 400 m 1
 620 400 l 1
 620 0 l 1
 600 0 l 1
 600 376 l 1
 40 376 l 1
 40 0 l 1
 20 0 l 1
 20 400 l 1
EndSplineSet
Validated: 1
EndChar

StartChar: W
Encoding: 17 87 17
Width: 640
VWidth: 0
Flags: W
HStem: 0 20<40 600> 170 40<301 339> 376 24<40 600>
VStem: 20 20<20 376> 301 38<170 210> 600 20<20 376>
CounterMasks: 1 1c
LayerCount: 2
Fore
SplineSet
301 170 m 5
 301 210 l 5
 339 210 l 5
 339 170 l 5
 301 170 l 5
40 376 m 1
 40 20 l 1
 600 20 l 1
 600 376 l 1
 40 376 l 1
20 400 m 1
 620 400 l 1
 620 0 l 1
 20 0 l 1
 20 400 l 1
EndSplineSet
Validated: 1
EndChar

StartChar: N
Encoding: 18 78 18
Width: 640
VWidth: 0
Flags: W
HStem: 0 20<40 600> 376 24<40 600>
VStem: 20 20<20 376> 600 20<20 376>
LayerCount: 2
Fore
SplineSet
40 376 m 1
 40 20 l 1
 600 20 l 5
 600 376 l 5
 40 376 l 1
20 400 m 1
 620 400 l 5
 620 0 l 5
 20 0 l 1
 20 400 l 1
EndSplineSet
Validated: 1
EndChar

StartChar: X
Encoding: 19 88 19
Width: 640
VWidth: 0
Flags: W
HStem: 0 20<40 600> 170 40<301 339> 380 20G<20 40 600 620>
VStem: 20 20<20 400> 301 38<170 210> 600 20<22 402>
CounterMasks: 1 1c
LayerCount: 2
Fore
SplineSet
301 170 m 5
 301 210 l 5
 339 210 l 5
 339 170 l 5
 301 170 l 5
620 2 m 1
 20 0 l 1
 20 400 l 1
 40 400 l 1
 40 20 l 1
 600 22 l 1
 600 402 l 1
 620 402 l 1
 620 2 l 1
EndSplineSet
Validated: 1
EndChar

StartChar: O
Encoding: 20 79 20
Width: 640
VWidth: 0
Flags: W
HStem: 0 20<40 600> 380 20G<20 40 600 620>
VStem: 20 20<20 400> 600 20<22 402>
LayerCount: 2
Fore
SplineSet
620 2 m 5
 20 0 l 1
 20 400 l 1
 40 400 l 1
 40 20 l 1
 600 22 l 5
 600 402 l 5
 620 402 l 5
 620 2 l 5
EndSplineSet
Validated: 1
EndChar

StartChar: Y
Encoding: 21 89 21
Width: 640
VWidth: 0
Flags: W
HStem: 0 21G<20 40> 170 40<301 339> 376 24<40 620>
VStem: 20 20<0 376> 301 38<170 210>
LayerCount: 2
Fore
SplineSet
301 170 m 5
 301 210 l 5
 339 210 l 5
 339 170 l 5
 301 170 l 5
620 400 m 1
 620 376 l 1
 40 376 l 1
 40 0 l 1
 20 0 l 1
 20 400 l 1
 620 400 l 1
EndSplineSet
Validated: 1
EndChar

StartChar: P
Encoding: 22 80 22
Width: 640
VWidth: 0
Flags: W
HStem: 0 21G<20 40> 376 24<40 620>
VStem: 20 20<0 376>
LayerCount: 2
Fore
SplineSet
620 400 m 5
 620 376 l 5
 40 376 l 1
 40 0 l 1
 20 0 l 1
 20 400 l 1
 620 400 l 5
EndSplineSet
Validated: 1
EndChar

StartChar: Q
Encoding: 23 81 23
Width: 640
VWidth: 0
Flags: W
HStem: 0 20<40 620> 376 24<40 620>
VStem: 20 20<20 376>
LayerCount: 2
Fore
SplineSet
620 400 m 29
 620 376 l 5
 40 376 l 1
 40 20 l 1
 620 20 l 29
 620 0 l 29
 20 0 l 1
 20 400 l 1
 620 400 l 29
EndSplineSet
Validated: 1
EndChar

StartChar: Z
Encoding: 24 90 24
Width: 640
VWidth: 0
Flags: W
HStem: 0 20<40 620> 170 40<301 339> 376 24<40 620>
VStem: 20 20<20 376> 301 38<170 210>
LayerCount: 2
Fore
SplineSet
301 170 m 5
 301 210 l 5
 339 210 l 5
 339 170 l 5
 301 170 l 5
620 400 m 25
 620 376 l 1
 40 376 l 1
 40 20 l 1
 620 20 l 25
 620 0 l 25
 20 0 l 1
 20 400 l 1
 620 400 l 25
EndSplineSet
Validated: 1
EndChar

StartChar: R
Encoding: 25 82 25
Width: 640
VWidth: 0
Flags: W
HStem: 0 20<40 620> 380 20G<20 40> 380 20G<20 40>
VStem: 20 20<20 400>
LayerCount: 2
Fore
SplineSet
20 400 m 1xd0
 40 400 l 1
 40 20 l 1
 620 20 l 5
 620 0 l 5
 20 0 l 1
 20 400 l 1xd0
EndSplineSet
Validated: 1
EndChar

StartChar: a
Encoding: 26 97 26
Width: 240
VWidth: 0
Flags: W
HStem: 0 21G<200 220> 180 20<20 200>
VStem: 200 20<0 180>
LayerCount: 2
Fore
SplineSet
20 200 m 5
 220 200 l 5
 220 0 l 5
 200 0 l 5
 200 180 l 5
 20 180 l 5
 20 200 l 5
EndSplineSet
Validated: 1
EndChar

StartChar: b
Encoding: 27 98 27
Width: 240
VWidth: 0
Flags: W
HStem: 0 20<20 200> 180 20<20 200>
VStem: 200 20<20 180>
LayerCount: 2
Fore
SplineSet
20 200 m 5
 220 200 l 1
 220 0 l 1
 20 0 l 1
 20 20 l 1
 200 20 l 1
 200 180 l 1
 20 180 l 1
 20 200 l 5
EndSplineSet
Validated: 1
EndChar

StartChar: c
Encoding: 28 99 28
Width: 240
VWidth: 0
Flags: W
HStem: 0 20<20 200> 180 20G<200 220>
VStem: 200 20<20 200>
LayerCount: 2
Fore
SplineSet
200 20 m 1
 200 200 l 5
 220 200 l 5
 220 0 l 1
 20 0 l 1
 20 20 l 1
 200 20 l 1
EndSplineSet
Validated: 1
EndChar

StartChar: d
Encoding: 29 100 29
Width: 240
VWidth: 0
Flags: W
HStem: 0 21G<20 40 200 220> 180 20<40 200>
VStem: 20 20<0 180> 200 20<0 180>
LayerCount: 2
Fore
SplineSet
20 200 m 5
 220 200 l 1
 220 0 l 1
 200 0 l 1
 200 180 l 1
 40 180 l 1
 40 0 l 1
 20 0 l 1
 20 200 l 5
EndSplineSet
Validated: 1
EndChar

StartChar: e
Encoding: 30 101 30
Width: 240
VWidth: 0
Flags: W
HStem: 0 20<40 200> 180 20<40 200>
VStem: 20 20<20 180> 200 20<20 180>
LayerCount: 2
Fore
SplineSet
40 180 m 1
 40 20 l 1
 200 20 l 1
 200 180 l 1
 40 180 l 1
20 200 m 5
 220 200 l 1
 220 0 l 1
 20 0 l 1
 20 200 l 5
EndSplineSet
Validated: 1
EndChar

StartChar: f
Encoding: 31 102 31
Width: 240
VWidth: 0
Flags: W
HStem: 0 20<40 200> 180 20G<20 40 200 220>
VStem: 20 20<20 200> 200 20<20 200>
LayerCount: 2
Fore
SplineSet
220 0 m 1
 20 0 l 1
 20 200 l 1
 40 200 l 1
 40 20 l 1
 200 20 l 1
 200 200 l 5
 220 200 l 5
 220 0 l 1
EndSplineSet
Validated: 1
EndChar

StartChar: g
Encoding: 32 103 32
Width: 240
VWidth: 0
Flags: W
HStem: 0 21G<20 40> 180 20<40 220>
VStem: 20 20<0 180>
LayerCount: 2
Fore
SplineSet
220 200 m 1
 220 180 l 1
 40 180 l 1
 40 0 l 1
 20 0 l 1
 20 200 l 1
 220 200 l 1
EndSplineSet
Validated: 1
EndChar

StartChar: h
Encoding: 33 104 33
Width: 240
VWidth: 0
Flags: W
HStem: 0 20<40 220> 180 20<40 220>
VStem: 20 20<20 180>
LayerCount: 2
Fore
SplineSet
220 200 m 5
 220 180 l 5
 40 180 l 1
 40 20 l 1
 220 20 l 25
 220 0 l 25
 20 0 l 1
 20 68 20 132 20 200 c 1
 220 200 l 5
EndSplineSet
Validated: 1
EndChar

StartChar: i
Encoding: 34 105 34
Width: 240
VWidth: 0
Flags: W
HStem: 0 20<40 220> 180 20G<20 40>
VStem: 20 20<20 200>
LayerCount: 2
Fore
SplineSet
20 200 m 1
 40 200 l 1
 40 20 l 1
 220 20 l 5
 220 0 l 5
 20 0 l 1
 20 200 l 1
EndSplineSet
Validated: 1
EndChar

StartChar: j
Encoding: 35 106 35
Width: 240
VWidth: 0
Flags: W
HStem: -200 21G<200 220> 180 20<20 200>
VStem: 200 20<-200 180>
LayerCount: 2
Fore
SplineSet
20 200 m 1
 220 200 l 1
 220 -200 l 1
 200 -200 l 1
 200 180 l 1
 20 180 l 1
 20 200 l 1
EndSplineSet
Validated: 1
EndChar

StartChar: k
Encoding: 36 107 36
Width: 440
VWidth: 0
Flags: W
HStem: 0 20<20 400> 180 20<220 400>
VStem: 400 20<20 180>
LayerCount: 2
Fore
SplineSet
220 200 m 5
 420 200 l 5
 420 0 l 5
 20 0 l 1
 20 20 l 1
 400 20 l 5
 400 180 l 5
 220 180 l 5
 220 200 l 5
EndSplineSet
Validated: 1
EndChar

StartChar: l
Encoding: 37 108 37
Width: 240
VWidth: 0
Flags: W
HStem: 0 20<20 200> 379 20G<200 220> 379 20G<200 220>
VStem: 200 20<20 399>
LayerCount: 2
Fore
SplineSet
200 20 m 1xd0
 200 399 l 5
 220 399 l 5
 220 0 l 1
 20 0 l 1
 20 20 l 1
 200 20 l 1xd0
EndSplineSet
Validated: 1
EndChar

StartChar: m
Encoding: 38 109 38
Width: 240
VWidth: 0
Flags: W
HStem: -200 21G<200 220> 0 21G<20 40> 180 20<40 200>
VStem: 20 20<0 180> 200 20<-200 180>
LayerCount: 2
Fore
SplineSet
20 200 m 5
 220 200 l 5
 220 -200 l 5
 200 -200 l 5
 200 180 l 5
 40 180 l 5
 40 0 l 5
 20 0 l 5
 20 200 l 5
EndSplineSet
Validated: 1
EndChar

StartChar: n
Encoding: 39 110 39
Width: 240
VWidth: 0
Flags: W
HStem: -200 21G<200 220> 0 20<40 200> 180 20<40 200>
VStem: 20 20<20 180> 200 20<-200 0 20 180>
LayerCount: 2
Fore
SplineSet
40 180 m 1
 40 20 l 1
 200 20 l 1
 200 180 l 1
 40 180 l 1
20 200 m 1
 220 200 l 1
 220 -200 l 1
 200 -200 l 1
 200 0 l 1
 20 0 l 1
 20 200 l 1
EndSplineSet
Validated: 1
EndChar

StartChar: o
Encoding: 40 111 40
Width: 240
VWidth: 0
Flags: W
HStem: 0 20<40 200> 180 20G<20 40 200 220> 380 20G<200 220>
VStem: 20 20<20 200> 200 20<20 400>
LayerCount: 2
Fore
SplineSet
220 0 m 1
 20 0 l 1
 20 200 l 1
 40 200 l 1
 40 20 l 1
 200 20 l 1
 200 400 l 1
 220 400 l 1
 220 0 l 1
EndSplineSet
Validated: 1
EndChar

StartChar: p
Encoding: 41 112 41
Width: 240
VWidth: 0
Flags: W
HStem: -201 21G<20 40> 180 20<40 220>
VStem: 20 20<-201 180>
LayerCount: 2
Fore
SplineSet
220 200 m 1
 220 180 l 1
 40 180 l 1
 40 -201 l 5
 20 -201 l 5
 20 200 l 1
 220 200 l 1
EndSplineSet
Validated: 1
EndChar

StartChar: q
Encoding: 42 113 42
Width: 440
VWidth: 0
Flags: W
HStem: 0 20<40 220> 180 20<40 420>
VStem: 20 20<20 180>
LayerCount: 2
Fore
SplineSet
420 200 m 5
 420 180 l 5
 40 180 l 1
 40 20 l 1
 220 20 l 25
 220 0 l 25
 20 0 l 1
 20 68 20 132 20 200 c 1
 420 200 l 5
EndSplineSet
Validated: 1
EndChar

StartChar: r
Encoding: 43 114 43
Width: 440
VWidth: 0
Flags: W
HStem: 0 20<40 420> 180 20G<20 40>
VStem: 20 20<20 200>
LayerCount: 2
Fore
SplineSet
20 200 m 1
 40 200 l 1
 40 20 l 1
 420 20 l 5
 420 0 l 5
 20 0 l 1
 20 200 l 1
EndSplineSet
Validated: 1
EndChar

StartChar: s
Encoding: 44 115 44
Width: 240
VWidth: 0
Flags: W
HStem: -200 21G<200 220> 80 40<102 140> 180 20<20 200>
VStem: 102 38<80 120> 200 20<-200 180>
LayerCount: 2
Fore
SplineSet
102 80 m 5
 102 120 l 5
 140 120 l 5
 140 80 l 5
 102 80 l 5
20 200 m 1
 220 200 l 1
 220 -200 l 1
 200 -200 l 1
 200 180 l 1
 20 180 l 1
 20 200 l 1
EndSplineSet
Validated: 1
EndChar

StartChar: t
Encoding: 45 116 45
Width: 440
VWidth: 0
Flags: W
HStem: 0 20<20 400> 80 40<302 340> 180 20<220 400>
VStem: 302 38<80 120> 400 20<20 180>
CounterMasks: 1 e0
LayerCount: 2
Fore
SplineSet
302 80 m 5
 302 120 l 5
 340 120 l 5
 340 80 l 5
 302 80 l 5
220 200 m 1
 420 200 l 1
 420 0 l 1
 20 0 l 1
 20 20 l 1
 400 20 l 1
 400 180 l 1
 220 180 l 1
 220 200 l 1
EndSplineSet
Validated: 1
EndChar

StartChar: u
Encoding: 46 117 46
Width: 240
VWidth: 0
Flags: W
HStem: 0 20<20 200> 80 40<102 140> 379 20G<200 220> 379 20G<200 220>
VStem: 102 38<80 120> 200 20<20 399>
LayerCount: 2
Fore
SplineSet
102 80 m 5xcc
 102 120 l 5
 140 120 l 5
 140 80 l 5
 102 80 l 5xcc
200 20 m 1
 200 399 l 1
 220 399 l 1xec
 220 0 l 1
 20 0 l 1
 20 20 l 1
 200 20 l 1
EndSplineSet
Validated: 1
EndChar

StartChar: v
Encoding: 47 118 47
Width: 240
VWidth: 0
Flags: W
HStem: -200 21G<200 220> 0 21G<20 40> 80 40<102 140> 180 20<40 200>
VStem: 20 20<0 180> 102 38<80 120> 200 20<-200 180>
LayerCount: 2
Fore
SplineSet
102 80 m 5
 102 120 l 5
 140 120 l 5
 140 80 l 5
 102 80 l 5
20 200 m 1
 220 200 l 1
 220 -200 l 1
 200 -200 l 1
 200 180 l 1
 40 180 l 1
 40 0 l 1
 20 0 l 1
 20 200 l 1
EndSplineSet
Validated: 1
EndChar

StartChar: w
Encoding: 48 119 48
Width: 240
VWidth: 0
Flags: W
HStem: -200 21G<200 220> 0 20<40 200> 80 40<102 140> 180 20<40 200>
VStem: 20 20<20 180> 102 38<80 120> 200 20<-200 0 20 180>
LayerCount: 2
Fore
SplineSet
102 80 m 5
 102 120 l 5
 140 120 l 5
 140 80 l 5
 102 80 l 5
40 180 m 1
 40 20 l 1
 200 20 l 1
 200 180 l 1
 40 180 l 1
20 200 m 1
 220 200 l 1
 220 -200 l 1
 200 -200 l 1
 200 0 l 1
 20 0 l 1
 20 200 l 1
EndSplineSet
Validated: 1
EndChar

StartChar: x
Encoding: 49 120 49
Width: 240
VWidth: 0
Flags: W
HStem: 0 20<40 200> 80 40<102 140> 180 20G<20 40 200 220> 380 20G<200 220>
VStem: 20 20<20 200> 102 38<80 120> 200 20<20 400>
LayerCount: 2
Fore
SplineSet
102 80 m 5
 102 120 l 5
 140 120 l 5
 140 80 l 5
 102 80 l 5
220 0 m 1
 20 0 l 1
 20 200 l 1
 40 200 l 1
 40 20 l 1
 200 20 l 1
 200 400 l 1
 220 400 l 1
 220 0 l 1
EndSplineSet
Validated: 1
EndChar

StartChar: y
Encoding: 50 121 50
Width: 240
VWidth: 0
Flags: W
HStem: -201 21G<20 40> 80 40<102 140> 180 20<40 220>
VStem: 20 20<-201 180> 102 38<80 120>
LayerCount: 2
Fore
SplineSet
102 80 m 5
 102 120 l 5
 140 120 l 5
 140 80 l 5
 102 80 l 5
220 200 m 1
 220 180 l 1
 40 180 l 1
 40 -201 l 1
 20 -201 l 1
 20 200 l 1
 220 200 l 1
EndSplineSet
Validated: 1
EndChar

StartChar: z
Encoding: 51 122 51
Width: 440
VWidth: 0
Flags: W
HStem: 0 20<40 220> 80 40<102 140> 180 20<40 420>
VStem: 20 20<20 180> 102 38<80 120>
CounterMasks: 1 e0
LayerCount: 2
Fore
SplineSet
102 80 m 5
 102 120 l 5
 140 120 l 5
 140 80 l 5
 102 80 l 5
420 200 m 1
 420 180 l 1
 40 180 l 1
 40 20 l 1
 220 20 l 25
 220 0 l 25
 20 0 l 1
 20 68 20 132 20 200 c 1
 420 200 l 1
EndSplineSet
Validated: 1
EndChar

StartChar: at
Encoding: 52 64 52
Width: 240
VWidth: 0
Flags: W
HStem: 20 20<80 400> 272 20<136 316> 356 20<81 400>
VStem: 60 20<40 356> 316 20<92 272> 400 20<40 356>
LayerCount: 2
Fore
SplineSet
80 40 m 1
 400 40 l 1
 400 356 l 1
 81 356 l 1
 80 40 l 1
60 376 m 1
 420 376 l 1
 420 20 l 1
 60 20 l 1
 60 376 l 1
136 292 m 5
 336 292 l 5
 336 92 l 5
 316 92 l 5
 316 272 l 5
 136 272 l 5
 136 292 l 5
EndSplineSet
Validated: 1
EndChar

StartChar: registered
Encoding: 53 174 53
Width: 240
VWidth: 0
Flags: W
HStem: 20 20<80 400> 133 20<148 354> 238 20G<128 148> 356 20<81 400>
VStem: 60 20<40 356> 128 20<153 258> 400 20<40 356>
LayerCount: 2
Fore
SplineSet
80 40 m 1
 400 40 l 1
 400 356 l 1
 81 356 l 1
 80 40 l 1
60 376 m 1
 420 376 l 1
 420 20 l 1
 60 20 l 1
 60 376 l 1
354 133 m 1
 128 133 l 1
 128 258 l 1
 148 258 l 1
 148 153 l 1
 354 153 l 1
 354 133 l 1
EndSplineSet
Validated: 1
EndChar

StartChar: copyright
Encoding: 54 169 54
Width: 240
VWidth: 0
Flags: W
HStem: 20 20<80 400> 89 20<154 334> 269 20G<334 354> 356 20<81 400>
VStem: 60 20<40 356> 334 20<109 289> 400 20<40 356>
LayerCount: 2
Fore
SplineSet
80 40 m 1
 400 40 l 1
 400 356 l 1
 81 356 l 1
 80 40 l 1
60 376 m 1
 420 376 l 1
 420 20 l 1
 60 20 l 1
 60 376 l 1
354 289 m 5
 354 89 l 5
 154 89 l 5
 154 109 l 5
 334 109 l 5
 334 289 l 5
 354 289 l 5
EndSplineSet
Validated: 1
EndChar

StartChar: period
Encoding: 55 46 55
Width: 158
VWidth: 0
Flags: W
HStem: 0 40<20 58>
VStem: 20 38<0 40>
LayerCount: 2
Fore
SplineSet
20 0 m 5
 20 40 l 5
 58 40 l 5
 58 0 l 5
 20 0 l 5
EndSplineSet
Validated: 1
EndChar

StartChar: comma
Encoding: 56 44 56
Width: 78
VWidth: 0
Flags: W
HStem: -30 70
VStem: 20 38<0 40>
LayerCount: 2
Fore
SplineSet
20 -30 m 1
 20 40 l 1
 58 40 l 1
 58 0 l 1
 20 -30 l 1
EndSplineSet
Validated: 1
EndChar

StartChar: semicolon
Encoding: 57 59 57
Width: 60
VWidth: 0
Flags: W
HStem: 80 40<2 40>
VStem: 2 38<0 40 80 120>
LayerCount: 2
Fore
SplineSet
2 80 m 1
 2 120 l 1
 40 120 l 1
 40 80 l 1
 2 80 l 1
2 -30 m 1
 2 40 l 1
 40 40 l 1
 40 0 l 1
 2 -30 l 1
EndSplineSet
Validated: 1
EndChar

StartChar: colon
Encoding: 58 58 58
Width: 78
VWidth: 0
Flags: W
HStem: 0 40<20 58> 79 40<20 58>
VStem: 20 38<0 40 79 119>
LayerCount: 2
Fore
SplineSet
20 79 m 5
 20 119 l 5
 58 119 l 5
 58 79 l 5
 20 79 l 5
20 0 m 1
 20 40 l 1
 58 40 l 1
 58 0 l 1
 20 0 l 1
EndSplineSet
Validated: 1
EndChar

StartChar: underscore
Encoding: 59 95 59
Width: 240
VWidth: 0
Flags: W
HStem: 0 20<20 220>
LayerCount: 2
Fore
SplineSet
20 20 m 5
 87 20 153 20 220 20 c 5
 220 0 l 5
 20 0 l 5
 20 20 l 5
EndSplineSet
Validated: 1
EndChar

StartChar: quotedbl
Encoding: 61 34 61
Width: 116
VWidth: 0
Flags: W
HStem: 346 70<20 58 78 116>
VStem: 20 38<346 416> 78 38<346 416>
LayerCount: 2
Fore
SplineSet
78 346 m 5
 78 416 l 5
 116 416 l 5
 116 346 l 5
 78 346 l 5
20 346 m 1
 20 416 l 1
 58 416 l 1
 58 346 l 1
 20 346 l 1
EndSplineSet
Validated: 1
EndChar

StartChar: quotesingle
Encoding: 62 39 62
Width: 78
VWidth: 0
Flags: W
HStem: 346 70<20 58>
VStem: 20 38<346 416>
LayerCount: 2
Fore
SplineSet
20 346 m 1
 20 416 l 1
 58 416 l 1
 58 346 l 1
 20 346 l 1
EndSplineSet
Validated: 1
EndChar

StartChar: hyphen
Encoding: 63 45 63
Width: 200
VWidth: 0
Flags: W
HStem: 90 20<20 180>
VStem: 20 160<90 110>
LayerCount: 2
Fore
SplineSet
20 110 m 5
 87 110 113 110 180 110 c 1
 180 90 l 1
 20 90 l 5
 20 110 l 5
EndSplineSet
Validated: 1
EndChar

StartChar: exclam
Encoding: 64 33 64
Width: 158
VWidth: 0
Flags: W
HStem: 0 40<0 38>
VStem: 0 38<0 40 321.55 420> 10 20<62 212.36>
LayerCount: 2
Fore
SplineSet
0 420 m 5xc0
 67 420 -27 420 40 420 c 5
 30 62 l 1
 10 62 l 1xa0
 0 420 l 5xc0
0 0 m 1xc0
 0 40 l 1
 38 40 l 1
 38 0 l 1
 0 0 l 1xc0
EndSplineSet
Validated: 1
EndChar

StartChar: question
Encoding: 65 63 65
Width: 158
VWidth: 0
Flags: W
HStem: 0 40<71 109> 227 15<124.074 130.15> 296 21G<0 20> 400 24<20 158>
VStem: 0 20<296 400> 71 38<0 40> 79 20<76 178.295> 158 22<307.127 400>
LayerCount: 2
Fore
SplineSet
0 424 m 1xfb
 180 424 l 1
 180 424 174 227 136 227 c 0
 100 227 99 76 99 76 c 1
 79 76 l 1
 79 76 79 242 119 242 c 0
 152 242 158 400 158 400 c 1
 20 400 l 1
 20 296 l 1
 0 296 l 1
 0 424 l 1xfb
71 0 m 1xfd
 71 40 l 1
 109 40 l 1
 109 0 l 1
 71 0 l 1xfd
EndSplineSet
Validated: 1
EndChar

StartChar: ampersand
Encoding: 66 38 66
Width: 450
VWidth: 0
Flags: W
HStem: 60 20<250 410> 100 20<210 370> 140 20<190 330> 180 40<272 310> 220 20G<410 430> 280 20<10 170 190 330 350 370> 320 20<190 330>
VStem: 170 20<160 280 300 320> 272 38<180 220> 330 20<160 280 300 320> 370 20<120 280> 410 20<80 240>
LayerCount: 2
Fore
SplineSet
170 340 m 1xe7f0
 350 340 l 1
 350 300 l 1
 390 300 l 1
 390 100 l 1
 210 100 l 1
 210 120 l 1
 370 120 l 1
 370 280 l 1
 350 280 l 1
 350 140 l 1
 170 140 l 1
 170 280 l 1
 10 280 l 1
 10 300 l 1
 170 300 l 1
 170 340 l 1xe7f0
272 180 m 1xf7f0
 272 220 l 1
 310 220 l 1
 310 180 l 1
 272 180 l 1xf7f0
410 80 m 1
 410 240 l 1
 430 240 l 1xeff0
 430 60 l 1
 250 60 l 1
 250 80 l 1
 410 80 l 1
190 280 m 1
 190 160 l 1
 330 160 l 1
 330 280 l 1
 190 280 l 1
190 300 m 1
 330 300 l 1
 330 320 l 1
 190 320 l 1
 190 300 l 1
EndSplineSet
Validated: 1
EndChar

StartChar: section
Encoding: 67 167 67
Width: 240
VWidth: 0
Flags: W
HStem: -200 21G<200 220> 80 40<102 140> 180 20<20 200> 280 40<102 140> 380 20<20 200>
VStem: 102 38<80 120 280 320> 200 20<-200 180 200 380>
LayerCount: 2
Fore
SplineSet
102 80 m 1
 102 120 l 1
 140 120 l 1
 140 80 l 1
 102 80 l 1
102 280 m 1
 102 320 l 1
 140 320 l 1
 140 280 l 1
 102 280 l 1
20 400 m 1
 220 400 l 1
 220 200 l 1
 220 0 l 1
 220 -200 l 1
 200 -200 l 1
 200 0 l 1
 200 180 l 1
 20 180 l 1
 20 200 l 1
 200 200 l 1
 200 380 l 1
 20 380 l 1
 20 400 l 1
EndSplineSet
Validated: 1
EndChar

StartChar: uni00AD
Encoding: 68 173 68
Width: 200
VWidth: 0
Flags: W
HStem: 90 20<20 180>
VStem: 20 160<90 110>
LayerCount: 2
Fore
SplineSet
20 110 m 5
 87 110 113 110 180 110 c 1
 180 90 l 1
 20 90 l 5
 20 110 l 5
EndSplineSet
Validated: 1
EndChar

StartChar: endash
Encoding: 69 8211 69
Width: 240
VWidth: 0
Flags: W
HStem: 90 20<20 220>
LayerCount: 2
Fore
SplineSet
20 110 m 1
 87 110 153 110 220 110 c 1
 220 90 l 1
 20 90 l 1
 20 110 l 1
EndSplineSet
Validated: 1
EndChar

StartChar: emdash
Encoding: 70 8212 70
Width: 440
VWidth: 0
Flags: W
HStem: 90 20<20 420>
LayerCount: 2
Fore
SplineSet
20 110 m 1
 87 110 353 110 420 110 c 1
 420 90 l 1
 20 90 l 1
 20 110 l 1
EndSplineSet
Validated: 1
EndChar

StartChar: parenleft
Encoding: 71 40 71
Width: 80
VWidth: 0
Flags: W
HStem: -40 20<66.7969 80> 420 24<66.5517 80>
VStem: 20 20<84.8454 315.155>
LayerCount: 2
Fore
SplineSet
80 -20 m 1049,0,-1
80 420 m 1,1,-1
 40 420 40 200 40 200 c 1,4,-1
 40 200 40 -20 80 -20 c 1,7,-1
 80 -26 80 -31 80 -40 c 1,10,-1
 36 -40 20 20 20 200 c 0,13,-1
 20 376 36 444 80 444 c 1,16,-1
 80 421 80 443 80 420 c 1,1,-1
EndSplineSet
Validated: 1
EndChar

StartChar: parenright
Encoding: 72 41 72
Width: 80
VWidth: 0
Flags: W
HStem: -40 20<0 13.2031> 420 24<0 13.4483>
VStem: 40 20<84.8454 315.155>
LayerCount: 2
Fore
SplineSet
0 -20 m 1049,0,-1
0 420 m 1,1,-1
 0 443 0 421 0 444 c 1,4,-1
 44 444 60 376 60 200 c 0,7,-1
 60 20 44 -40 0 -40 c 1,10,-1
 0 -31 0 -26 0 -20 c 1,13,-1
 40 -20 40 200 40 200 c 1,16,-1
 40 200 40 420 0 420 c 1,1,-1
EndSplineSet
Validated: 1
EndChar

StartChar: bracketleft
Encoding: 73 91 73
Width: 99
VWidth: 0
Flags: W
HStem: -40 20<40 80> 420 24<40 80>
VStem: 20 60<-40 -20 420 444> 20 20<-20 420>
LayerCount: 2
Fore
SplineSet
80 444 m 25xe0
 80 420 l 1xe0
 40 420 l 25
 40 -20 l 25xd0
 80 -20 l 25
 80 -40 l 25
 20 -40 l 25
 20 444 l 1
 80 444 l 25xe0
EndSplineSet
Validated: 1
EndChar

StartChar: bracketright
Encoding: 74 93 74
Width: 100
VWidth: 0
Flags: W
HStem: -40 20<20 60> 420 24<20 60>
VStem: 20 60<-40 -20 420 444> 60 20<-20 420>
LayerCount: 2
Fore
SplineSet
20 444 m 1xe0
 80 444 l 1
 80 -40 l 1
 20 -40 l 1
 20 -20 l 1xe0
 60 -20 l 1
 60 420 l 1xd0
 20 420 l 1
 20 444 l 1xe0
EndSplineSet
Validated: 1
EndChar

StartChar: braceleft
Encoding: 75 123 75
Width: 120
VWidth: 0
Flags: W
HStem: -40 20<80 120> 190 20<20 46.0954> 420 24<80 120>
VStem: 60 20<-20 74.4123 325.585 420>
LayerCount: 2
Fore
SplineSet
120 444 m 25
 120 420 l 1
 80 420 l 1
 79 200 l 25
 80 -20 l 1
 120 -20 l 25
 120 -40 l 25
 60 -40 l 17
 59 160 65 190 20 190 c 5
 20 210 l 5
 60 210 60 220 60 444 c 1
 120 444 l 25
EndSplineSet
Validated: 1
EndChar

StartChar: braceright
Encoding: 76 125 76
Width: 120
VWidth: 0
Flags: W
HStem: -40 20<20 60> 190 20<93.9046 120> 420 24<20 60>
VStem: 60 20<-20 74.4123 325.585 420>
LayerCount: 2
Fore
SplineSet
20 444 m 25
 80 444 l 1
 80 220 80 210 120 210 c 5
 120 190 l 5
 75 190 81 160 80 -40 c 9
 20 -40 l 25
 20 -20 l 25
 60 -20 l 1
 61 200 l 25
 60 420 l 1
 20 420 l 1
 20 444 l 25
EndSplineSet
Validated: 1
EndChar

StartChar: backslash
Encoding: 77 92 77
Width: 100
VWidth: 0
Flags: WO
HStem: 0 21G<66.05 90> 380 20G<10 33.95> 380 20G<10 33.95>
VStem: 10 80
LayerCount: 2
Fore
SplineSet
10 400 m 1xd0
 31 400 l 1
 90 0 l 1
 69 0 l 1
 10 400 l 1xd0
EndSplineSet
Validated: 8388609
EndChar

StartChar: bar
Encoding: 78 124 78
Width: 440
VWidth: 0
Flags: WO
VStem: 20 20<-20 420>
LayerCount: 2
Fore
SplineSet
20 420 m 1
 40 420 l 1
 40 -20 l 1
 20 -20 l 1
 20 420 l 1
EndSplineSet
Validated: 8388609
EndChar

StartChar: slash
Encoding: 79 47 79
Width: 100
VWidth: 0
Flags: W
HStem: 0 21G<10 33.95> 380 20G<66.05 90> 380 20G<66.05 90>
VStem: 10 80
LayerCount: 2
Fore
SplineSet
90 400 m 1xd0
 31 0 l 1
 10 0 l 1
 69 400 l 5
 90 400 l 1xd0
EndSplineSet
Validated: 1
EndChar
